<?xml version="1.0" encoding="UTF-8"?>
<svg id="Layer_1" data-name="Layer 1" xmlns="http://www.w3.org/2000/svg" viewBox="0 0 568.43 616.62">
  <defs>
    <style>
      .cls-1 {
        fill: #61bcea;
      }

      .cls-2 {
        fill: #231f20;
      }

      .cls-3 {
        fill: none;
        stroke: #231f20;
        stroke-miterlimit: 10;
        stroke-width: 1.5px;
      }

      .cls-4 {
        fill: #f04f2c;
      }

      .cls-5 {
        fill: #84c779;
      }

      .cls-6 {
        fill: #faed28;
      }

      .cls-7 {
        fill: #db58a0;
      }
    </style>
  </defs>
  <g id="hori">
    <g id="TANG">
      <rect id="_탕_사탕" data-name="탕_사탕" class="cls-5" x="513.82" y="77.29" width="22.68" height="22.68" rx="11.34" ry="11.34"/>
      <g id="_탕__" data-name="탕_ㅇ">
        <line class="cls-3" x1="510.99" y1="85.79" x2="510.99" y2="91.46"/>
        <line class="cls-3" x1="539.33" y1="85.79" x2="539.33" y2="91.46"/>
        <line class="cls-3" x1="510.99" y1="88.62" x2="539.33" y2="88.62"/>
        <path class="cls-3" d="M496.81,68.78h56.69c7.82,0,14.17,6.35,14.17,14.17v17.01c0,7.82-6.35,14.17-14.17,14.17h-70.87v-31.18c0-7.82,6.35-14.17,14.17-14.17Z"/>
      </g>
      <g id="_탕__-2" data-name="탕_ㅏ">
        <rect class="cls-3" x="539.33" y=".75" width="28.35" height="68.03"/>
        <line class="cls-3" x1="567.68" y1="23.43" x2="562.01" y2="23.43"/>
        <line class="cls-3" x1="567.68" y1="46.1" x2="562.01" y2="46.1"/>
      </g>
      <g id="_탕__-3" data-name="탕_ㅌ">
        <line class="cls-3" x1="510.99" y1="43.27" x2="510.99" y2="48.94"/>
        <line class="cls-3" x1="510.99" y1="20.59" x2="510.99" y2="26.26"/>
        <line class="cls-3" x1="510.99" y1="46.1" x2="539.33" y2="46.1"/>
        <line class="cls-3" x1="510.99" y1="23.43" x2="539.33" y2="23.43"/>
        <rect class="cls-3" x="482.64" y=".75" width="56.69" height="68.03"/>
      </g>
    </g>
    <g id="SA">
      <rect id="_사_사탕" data-name="사_사탕" class="cls-4" x="414.61" y="37.6" width="22.68" height="22.68" rx="11.34" ry="11.34"/>
      <g id="_사__" data-name="사_ㅏ">
        <line class="cls-3" x1="482.64" y1="46.1" x2="476.97" y2="46.1"/>
        <line class="cls-3" x1="482.64" y1="68.78" x2="476.97" y2="68.78"/>
        <rect class="cls-3" x="454.29" y=".75" width="28.35" height="113.39"/>
      </g>
      <g id="_사__-2" data-name="사_ㅅ">
        <line class="cls-3" x1="425.95" y1="23.43" x2="425.95" y2="114.14"/>
        <line class="cls-3" x1="428.78" y1="23.43" x2="423.11" y2="23.43"/>
        <rect class="cls-3" x="397.6" y=".75" width="56.69" height="113.39"/>
      </g>
    </g>
    <g id="LIN">
      <rect id="_린_사탕" data-name="린_사탕" class="cls-7" x="329.57" y="77.29" width="22.68" height="22.68" rx="11.34" ry="11.34"/>
      <g id="_린__" data-name="린_ㄴ">
        <line class="cls-3" x1="340.91" y1="88.63" x2="336.9" y2="92.64"/>
        <polygon class="cls-3" points="369.25 88.62 369.25 114.14 284.21 114.14 284.21 68.79 340.9 68.79 340.9 88.62 369.25 88.62"/>
      </g>
      <rect id="_린__-2" data-name="린_ㅣ" class="cls-3" x="340.9" y=".75" width="28.35" height="68.03"/>
      <g id="_린__-3" data-name="린_ㄹ">
        <line class="cls-3" x1="312.56" y1="43.27" x2="312.56" y2="48.94"/>
        <line class="cls-3" x1="312.56" y1="20.59" x2="312.56" y2="26.26"/>
        <line class="cls-3" x1="312.56" y1="46.1" x2="340.9" y2="46.1"/>
        <line class="cls-3" x1="284.21" y1="23.43" x2="312.56" y2="23.43"/>
        <rect class="cls-3" x="284.21" y=".75" width="56.69" height="68.03"/>
      </g>
    </g>
    <g id="GUL">
      <rect id="_걸_사탕" data-name="걸_사탕" class="cls-6" x="216.18" y="12.09" width="22.68" height="22.68" rx="11.34" ry="11.34"/>
      <g id="_걸__" data-name="걸_ㄹ">
        <line class="cls-3" x1="227.52" y1="85.79" x2="227.52" y2="91.46"/>
        <line class="cls-3" x1="227.52" y1="65.95" x2="227.52" y2="71.62"/>
        <line class="cls-3" x1="199.17" y1="68.78" x2="227.52" y2="68.78"/>
        <line class="cls-3" x1="227.52" y1="88.62" x2="255.87" y2="88.62"/>
        <polygon class="cls-3" points="284.21 88.62 284.21 114.13 199.17 114.13 199.17 46.1 255.86 46.1 255.86 88.62 284.21 88.62"/>
      </g>
      <g id="_걸__-2" data-name="걸_ㅓ">
        <line class="cls-3" x1="261.53" y1="23.43" x2="255.87" y2="23.43"/>
        <line class="cls-3" x1="261.53" y1="46.1" x2="255.87" y2="46.1"/>
        <rect class="cls-3" x="255.86" y=".75" width="28.35" height="87.86"/>
      </g>
      <g id="_걸__-3" data-name="걸_ㄱ">
        <line class="cls-3" x1="231.53" y1="19.42" x2="227.52" y2="23.43"/>
        <polygon class="cls-3" points="255.87 .75 255.87 46.1 227.53 46.1 227.53 23.42 199.18 23.42 199.18 .75 255.87 .75"/>
      </g>
    </g>
    <g id="EH">
      <rect id="_예_사탕" data-name="예_사탕" class="cls-1" x="88.62" y="46.1" width="22.68" height="22.68" rx="11.34" ry="11.34"/>
      <g id="_예__" data-name="예_ㅔ">
        <line class="cls-3" x1="119.81" y1="46.1" x2="114.14" y2="46.1"/>
        <line class="cls-3" x1="119.81" y1="68.78" x2="114.14" y2="68.78"/>
        <rect class="cls-3" x="142.48" y=".75" width="28.35" height="113.39"/>
        <rect class="cls-3" x="114.14" y=".75" width="28.35" height="113.39"/>
      </g>
      <g id="_에__" data-name="에_ㅇ">
        <line class="cls-3" x1="99.96" y1="43.27" x2="99.96" y2="71.62"/>
        <path class="cls-3" d="M99.96.75h14.17v99.21c0,7.82-6.35,14.17-14.17,14.17h-14.17V14.92c0-7.82,6.35-14.17,14.17-14.17Z"/>
      </g>
    </g>
    <g id="MOK">
      <rect id="_목_사탕" data-name="목_사탕" class="cls-4" x="46.1" y="82.96" width="22.68" height="22.68" rx="11.34" ry="11.34"/>
      <g id="_목__" data-name="목_ㄱ">
        <line class="cls-3" x1="61.45" y1="90.28" x2="57.44" y2="94.29"/>
        <polygon class="cls-3" points="85.78 68.79 85.78 114.14 57.44 114.14 57.44 94.3 .75 94.3 .75 68.79 85.78 68.79"/>
      </g>
      <g id="_목__-2" data-name="목_ㅗ">
        <line class="cls-3" x1="29.1" y1="46.1" x2="29.1" y2="51.77"/>
        <line class="cls-3" x1="57.44" y1="46.1" x2="57.44" y2="51.77"/>
        <rect class="cls-3" x=".75" y="46.1" width="85.04" height="22.68"/>
      </g>
      <g id="_목__-3" data-name="목_ㅁ">
        <line class="cls-3" x1="29.1" y1="23.43" x2="29.1" y2="29.1"/>
        <line class="cls-3" x1="57.44" y1="23.43" x2="57.44" y2="29.1"/>
        <line class="cls-3" x1="29.1" y1="26.26" x2="57.44" y2="26.26"/>
        <rect class="cls-3" x=".75" y=".75" width="85.04" height="45.35"/>
        <rect class="cls-2" x="34.77" y="16.34" width="1.42" height="1.42"/>
        <rect class="cls-2" x="50.36" y="16.34" width="1.42" height="1.42"/>
      </g>
    </g>
  </g>
  <g id="ver">
    <g id="TANG-2" data-name="TANG">
      <rect id="_탕_사탕-2" data-name="탕_사탕" class="cls-5" x="202.01" y="579.02" width="22.68" height="22.68" rx="11.34" ry="11.34"/>
      <g id="_탕__-4" data-name="탕_ㅇ">
        <line class="cls-3" x1="199.18" y1="587.52" x2="199.18" y2="593.19"/>
        <line class="cls-3" x1="227.52" y1="587.52" x2="227.52" y2="593.19"/>
        <line class="cls-3" x1="199.18" y1="590.36" x2="227.52" y2="590.36"/>
        <path class="cls-3" d="M185,570.51h56.69c7.82,0,14.17,6.35,14.17,14.17v17.01c0,7.82-6.35,14.17-14.17,14.17h-70.87v-31.18c0-7.82,6.35-14.17,14.17-14.17Z"/>
      </g>
      <g id="_탕__-5" data-name="탕_ㅏ">
        <rect class="cls-3" x="227.52" y="502.48" width="28.35" height="68.03"/>
        <line class="cls-3" x1="255.87" y1="525.16" x2="250.2" y2="525.16"/>
        <line class="cls-3" x1="255.87" y1="547.84" x2="250.2" y2="547.84"/>
      </g>
      <g id="_탕__-6" data-name="탕_ㅌ">
        <line class="cls-3" x1="199.18" y1="545" x2="199.18" y2="550.67"/>
        <line class="cls-3" x1="199.18" y1="522.32" x2="199.18" y2="527.99"/>
        <line class="cls-3" x1="199.18" y1="547.84" x2="227.52" y2="547.84"/>
        <line class="cls-3" x1="199.18" y1="525.16" x2="227.52" y2="525.16"/>
        <rect class="cls-3" x="170.83" y="502.48" width="56.69" height="68.03"/>
      </g>
    </g>
    <g id="SA-2" data-name="SA">
      <rect id="_사_사탕-2" data-name="사_사탕" class="cls-4" x="102.8" y="539.33" width="22.68" height="22.68" rx="11.34" ry="11.34"/>
      <g id="_사__-3" data-name="사_ㅏ">
        <line class="cls-3" x1="170.83" y1="547.84" x2="165.16" y2="547.84"/>
        <line class="cls-3" x1="170.83" y1="570.51" x2="165.16" y2="570.51"/>
        <rect class="cls-3" x="142.48" y="502.48" width="28.35" height="113.39"/>
      </g>
      <g id="_사__-4" data-name="사_ㅅ">
        <line class="cls-3" x1="114.14" y1="525.16" x2="114.14" y2="615.87"/>
        <line class="cls-3" x1="116.97" y1="525.16" x2="111.3" y2="525.16"/>
        <rect class="cls-3" x="85.79" y="502.48" width="56.69" height="113.39"/>
      </g>
    </g>
    <g id="LIN-2" data-name="LIN">
      <rect id="_린_사탕-2" data-name="린_사탕" class="cls-7" x="216.19" y="465.63" width="22.68" height="22.68" rx="11.34" ry="11.34"/>
      <g id="_린__-4" data-name="린_ㄴ">
        <line class="cls-3" x1="227.52" y1="476.97" x2="223.51" y2="480.98"/>
        <polygon class="cls-3" points="255.87 476.97 255.87 502.48 170.83 502.48 170.83 457.13 227.52 457.13 227.52 476.97 255.87 476.97"/>
      </g>
      <rect id="_린__-5" data-name="린_ㅣ" class="cls-3" x="227.52" y="389.1" width="28.35" height="68.03"/>
      <g id="_린__-6" data-name="린_ㄹ">
        <line class="cls-3" x1="199.18" y1="431.62" x2="199.18" y2="437.29"/>
        <line class="cls-3" x1="199.18" y1="408.94" x2="199.18" y2="414.61"/>
        <line class="cls-3" x1="199.18" y1="434.45" x2="227.52" y2="434.45"/>
        <line class="cls-3" x1="170.83" y1="411.77" x2="199.18" y2="411.77"/>
        <rect class="cls-3" x="170.83" y="389.1" width="56.69" height="68.03"/>
      </g>
    </g>
    <g id="GUL-2" data-name="GUL">
      <rect id="_걸_사탕-2" data-name="걸_사탕" class="cls-6" x="102.8" y="400.44" width="22.68" height="22.68" rx="11.34" ry="11.34"/>
      <g id="_걸__-4" data-name="걸_ㄹ">
        <line class="cls-3" x1="114.14" y1="474.14" x2="114.14" y2="479.81"/>
        <line class="cls-3" x1="114.14" y1="454.29" x2="114.14" y2="459.96"/>
        <line class="cls-3" x1="85.79" y1="457.13" x2="114.14" y2="457.13"/>
        <line class="cls-3" x1="114.14" y1="476.97" x2="142.48" y2="476.97"/>
        <polygon class="cls-3" points="170.83 476.97 170.83 502.48 85.79 502.48 85.79 434.45 142.48 434.45 142.48 476.97 170.83 476.97"/>
      </g>
      <g id="_걸__-5" data-name="걸_ㅓ">
        <line class="cls-3" x1="148.15" y1="411.77" x2="142.48" y2="411.77"/>
        <line class="cls-3" x1="148.15" y1="434.45" x2="142.48" y2="434.45"/>
        <rect class="cls-3" x="142.48" y="389.1" width="28.35" height="87.86"/>
      </g>
      <g id="_걸__-6" data-name="걸_ㄱ">
        <line class="cls-3" x1="118.15" y1="407.76" x2="114.14" y2="411.77"/>
        <polygon class="cls-3" points="142.48 389.1 142.48 434.45 114.14 434.45 114.14 411.77 85.79 411.77 85.79 389.1 142.48 389.1"/>
      </g>
    </g>
    <g id="EH-2" data-name="EH">
      <rect id="_예_사탕-2" data-name="예_사탕" class="cls-1" x="88.62" y="321.06" width="22.68" height="22.68" rx="11.34" ry="11.34"/>
      <g id="_예__-2" data-name="예_ㅔ">
        <line class="cls-3" x1="119.81" y1="321.06" x2="114.14" y2="321.06"/>
        <line class="cls-3" x1="119.81" y1="343.74" x2="114.14" y2="343.74"/>
        <rect class="cls-3" x="142.48" y="275.71" width="28.35" height="113.39"/>
        <rect class="cls-3" x="114.14" y="275.71" width="28.35" height="113.39"/>
      </g>
      <g id="_에__-2" data-name="에_ㅇ">
        <line class="cls-3" x1="99.96" y1="318.23" x2="99.96" y2="346.58"/>
        <path class="cls-3" d="M99.96,275.71h14.17v99.21c0,7.82-6.35,14.17-14.17,14.17h-14.17v-99.21c0-7.82,6.35-14.17,14.17-14.17Z"/>
      </g>
    </g>
    <g id="MOK-2" data-name="MOK">
      <rect id="_목_사탕-2" data-name="목_사탕" class="cls-4" x="31.93" y="423.11" width="22.68" height="22.68" rx="11.34" ry="11.34"/>
      <g id="_목__-4" data-name="목_ㄱ">
        <line class="cls-3" x1="61.45" y1="592.02" x2="57.44" y2="596.03"/>
        <polygon class="cls-3" points="85.78 570.52 85.78 615.87 57.44 615.87 57.44 596.03 .75 596.03 .75 570.52 85.78 570.52"/>
      </g>
      <g id="_목_모" data-name="목_모">
        <line class="cls-3" x1="29.1" y1="298.39" x2="29.1" y2="304.06"/>
        <line class="cls-3" x1="57.44" y1="298.39" x2="57.44" y2="304.06"/>
        <line class="cls-3" x1="29.1" y1="301.22" x2="57.44" y2="301.22"/>
        <polygon class="cls-3" points="57.44 321.06 57.44 547.83 85.79 547.83 85.79 570.51 .75 570.51 .75 547.83 29.09 547.83 29.09 321.06 .75 321.06 .75 275.71 85.79 275.71 85.79 321.06 57.44 321.06"/>
        <rect class="cls-2" x="34.77" y="291.3" width="1.42" height="1.42"/>
        <rect class="cls-2" x="50.36" y="291.3" width="1.42" height="1.42"/>
      </g>
    </g>
  </g>
  <g id="ver_Stretch">
    <g id="TANG-3" data-name="TANG">
      <rect id="_탕_사탕-3" data-name="탕_사탕" class="cls-5" x="513.82" y="579.02" width="22.68" height="22.68" rx="11.34" ry="11.34"/>
      <g id="_탕__-7" data-name="탕_ㅇ">
        <line class="cls-3" x1="510.99" y1="587.52" x2="510.99" y2="593.19"/>
        <line class="cls-3" x1="539.33" y1="587.52" x2="539.33" y2="593.19"/>
        <line class="cls-3" x1="510.99" y1="590.36" x2="539.33" y2="590.36"/>
        <path class="cls-3" d="M496.81,570.51h56.69c7.82,0,14.17,6.35,14.17,14.17v17.01c0,7.82-6.35,14.17-14.17,14.17h-70.87v-31.18c0-7.82,6.35-14.17,14.17-14.17Z"/>
      </g>
      <g id="_탕__-8" data-name="탕_ㅏ">
        <rect class="cls-3" x="539.33" y="502.48" width="28.35" height="68.03"/>
        <line class="cls-3" x1="567.68" y1="525.16" x2="562.01" y2="525.16"/>
        <line class="cls-3" x1="567.68" y1="547.84" x2="562.01" y2="547.84"/>
      </g>
      <g id="_탕__-9" data-name="탕_ㅌ">
        <line class="cls-3" x1="510.99" y1="545" x2="510.99" y2="550.67"/>
        <line class="cls-3" x1="510.99" y1="522.32" x2="510.99" y2="527.99"/>
        <line class="cls-3" x1="510.99" y1="547.84" x2="539.33" y2="547.84"/>
        <line class="cls-3" x1="510.99" y1="525.16" x2="539.33" y2="525.16"/>
        <rect class="cls-3" x="482.64" y="502.48" width="56.69" height="68.03"/>
      </g>
    </g>
    <g id="SA-3" data-name="SA">
      <rect id="_사_사탕-3" data-name="사_사탕" class="cls-4" x="414.61" y="539.33" width="22.68" height="22.68" rx="11.34" ry="11.34"/>
      <g id="_사__-5" data-name="사_ㅏ">
        <line class="cls-3" x1="482.64" y1="547.84" x2="476.97" y2="547.84"/>
        <line class="cls-3" x1="482.64" y1="570.51" x2="476.97" y2="570.51"/>
        <rect class="cls-3" x="454.29" y="502.48" width="28.35" height="113.39"/>
      </g>
      <g id="_사__-6" data-name="사_ㅅ">
        <line class="cls-3" x1="425.95" y1="525.16" x2="425.95" y2="615.87"/>
        <line class="cls-3" x1="428.78" y1="525.16" x2="423.11" y2="525.16"/>
        <rect class="cls-3" x="397.6" y="502.48" width="56.69" height="113.39"/>
      </g>
    </g>
    <g id="LIN-3" data-name="LIN">
      <rect id="_린_사탕-3" data-name="린_사탕" class="cls-7" x="528" y="465.63" width="22.68" height="22.68" rx="11.34" ry="11.34"/>
      <g id="_린__-7" data-name="린_ㄴ">
        <line class="cls-3" x1="539.33" y1="476.97" x2="535.32" y2="480.98"/>
        <polygon class="cls-3" points="567.68 476.97 567.68 502.48 482.64 502.48 482.64 457.13 539.33 457.13 539.33 476.97 567.68 476.97"/>
      </g>
      <rect id="_린__-8" data-name="린_ㅣ" class="cls-3" x="539.33" y="389.1" width="28.35" height="68.03"/>
      <g id="_린__-9" data-name="린_ㄹ">
        <line class="cls-3" x1="510.99" y1="431.62" x2="510.99" y2="437.29"/>
        <line class="cls-3" x1="510.99" y1="408.94" x2="510.99" y2="414.61"/>
        <line class="cls-3" x1="510.99" y1="434.45" x2="539.33" y2="434.45"/>
        <line class="cls-3" x1="482.64" y1="411.77" x2="510.99" y2="411.77"/>
        <rect class="cls-3" x="482.64" y="389.1" width="56.69" height="68.03"/>
      </g>
    </g>
    <g id="GUL-3" data-name="GUL">
      <rect id="_걸_사탕-3" data-name="걸_사탕" class="cls-6" x="414.61" y="400.44" width="22.68" height="22.68" rx="11.34" ry="11.34"/>
      <g id="_걸__-7" data-name="걸_ㄹ">
        <line class="cls-3" x1="425.95" y1="474.14" x2="425.95" y2="479.81"/>
        <line class="cls-3" x1="425.95" y1="454.29" x2="425.95" y2="459.96"/>
        <line class="cls-3" x1="397.6" y1="457.13" x2="425.95" y2="457.13"/>
        <line class="cls-3" x1="425.95" y1="476.97" x2="454.29" y2="476.97"/>
        <polygon class="cls-3" points="482.64 476.97 482.64 502.48 397.6 502.48 397.6 434.45 454.29 434.45 454.29 476.97 482.64 476.97"/>
      </g>
      <g id="_걸__-8" data-name="걸_ㅓ">
        <line class="cls-3" x1="459.96" y1="411.77" x2="454.29" y2="411.77"/>
        <line class="cls-3" x1="459.96" y1="434.45" x2="454.29" y2="434.45"/>
        <rect class="cls-3" x="454.29" y="389.1" width="28.35" height="87.86"/>
      </g>
      <g id="_걸__-9" data-name="걸_ㄱ">
        <line class="cls-3" x1="429.96" y1="407.76" x2="425.95" y2="411.77"/>
        <polygon class="cls-3" points="454.29 389.1 454.29 434.45 425.95 434.45 425.95 411.77 397.6 411.77 397.6 389.1 454.29 389.1"/>
      </g>
    </g>
    <g id="EH-3" data-name="EH">
      <rect id="_예_사탕-3" data-name="예_사탕" class="cls-1" x="400.44" y="321.06" width="22.68" height="22.68" rx="11.34" ry="11.34"/>
      <g id="_예__-3" data-name="예_ㅔ">
        <line class="cls-3" x1="431.62" y1="321.06" x2="425.95" y2="321.06"/>
        <line class="cls-3" x1="431.62" y1="343.74" x2="425.95" y2="343.74"/>
        <rect class="cls-3" x="454.29" y="275.71" width="28.35" height="113.39"/>
        <rect class="cls-3" x="425.95" y="275.71" width="28.35" height="113.39"/>
      </g>
      <g id="_에__-3" data-name="에_ㅇ">
        <line class="cls-3" x1="411.77" y1="318.23" x2="411.77" y2="346.58"/>
        <path class="cls-3" d="M411.77,275.71h14.17v99.21c0,7.82-6.35,14.17-14.17,14.17h-14.17v-99.21c0-7.82,6.35-14.17,14.17-14.17Z"/>
      </g>
    </g>
    <g id="MOK-3" data-name="MOK">
      <rect id="_목_사탕-3" data-name="목_사탕" class="cls-4" x="343.74" y="423.11" width="22.68" height="22.68" rx="11.34" ry="11.34"/>
      <g id="_목__-5" data-name="목_ㄱ">
        <line class="cls-3" x1="373.26" y1="592.02" x2="369.25" y2="596.03"/>
        <polygon class="cls-3" points="397.59 570.52 397.59 615.87 369.25 615.87 369.25 596.03 312.56 596.03 312.56 570.52 397.59 570.52"/>
      </g>
      <g id="_목_모-2" data-name="목_모">
        <line class="cls-3" x1="340.91" y1="298.39" x2="340.91" y2="304.06"/>
        <line class="cls-3" x1="369.25" y1="298.39" x2="369.25" y2="304.06"/>
        <line class="cls-3" x1="340.91" y1="301.22" x2="369.25" y2="301.22"/>
        <path class="cls-3" d="M369.25,321.06v88.16c0,4.18,1.51,8.16,4.01,11.5,5.83,7.79,5.83,19.65,0,27.44-2.5,3.34-4.01,7.33-4.01,11.51v88.16h28.35v22.68h-85.04v-22.68h28.34v-88.2c0-4.16-1.5-8.13-3.99-11.46-5.81-7.76-5.84-19.66-.01-27.45,2.5-3.35,4.01-7.33,4.01-11.5v-88.16h-28.34v-45.35h85.04v45.35h-28.35Z"/>
        <rect class="cls-2" x="346.58" y="291.3" width="1.42" height="1.42"/>
        <rect class="cls-2" x="362.17" y="291.3" width="1.42" height="1.42"/>
      </g>
    </g>
  </g>
</svg>